<svg width="799" height="170" viewBox="0 0 799 170" version="1.1" xmlns="http://www.w3.org/2000/svg" xmlns:xlink="http://www.w3.org/1999/xlink" xmlns:figma="http://www.figma.com/figma/ns">
<title>HackSC 2017</title>
<desc>Created using Figma</desc>
<g id="Canvas" transform="translate(-17350 2753)" figma:type="canvas">
<g id="HackSC 2017" style="mix-blend-mode:color-dodge;" figma:type="vector">
<use xlink:href="#path0_fill" transform="translate(17350 -2753)" fill="#0BDDEF" style="mix-blend-mode:normal;"/>
<use xlink:href="#path1_fill" transform="translate(17350 -2753)" fill="#0BDDEF" style="mix-blend-mode:normal;"/>
<use xlink:href="#path2_fill" transform="translate(17350 -2753)" fill="#0BDDEF" style="mix-blend-mode:normal;"/>
<use xlink:href="#path3_fill" transform="translate(17350 -2753)" fill="#0BDDEF" style="mix-blend-mode:normal;"/>
<use xlink:href="#path4_fill" transform="translate(17350 -2753)" fill="#0BDDEF" style="mix-blend-mode:normal;"/>
<use xlink:href="#path5_fill" transform="translate(17350 -2753)" fill="#0BDDEF" style="mix-blend-mode:normal;"/>
</g>
</g>
<defs>
<path id="path0_fill" d="M 131.38 166.549L 131.38 3.45061L 103.685 3.45061L 103.685 70.8525L 27.4663 70.8525L 27.4663 3.45061L 0 3.45061L 0 166.549L 27.4663 166.549L 27.4663 96.8471L 103.685 96.8471L 103.685 166.549L 131.38 166.549Z"/>
<path id="path1_fill" d="M 155.92 136.184C 155.92 153.897 170.339 170 193.686 170C 211.768 170 222.754 160.798 228.019 152.287C 228.019 161.258 228.934 165.859 229.163 166.549L 253.883 166.549C 253.654 165.399 252.509 158.728 252.509 148.606L 252.509 92.9364C 252.509 70.6225 239.463 51.069 205.13 51.069C 177.664 51.069 160.268 68.3221 158.208 87.6455L 182.47 93.1664C 183.615 81.8944 191.397 72.9229 205.359 72.9229C 220.008 72.9229 226.416 80.5142 226.416 89.9459C 226.416 93.8566 224.585 97.0771 218.176 97.9973L 189.566 102.368C 170.568 105.129 155.92 116.17 155.92 136.184ZM 198.721 149.066C 188.192 149.066 182.47 142.165 182.47 134.574C 182.47 125.372 189.108 120.771 197.348 119.391L 226.416 115.02L 226.416 120.081C 226.416 141.935 213.599 149.066 198.721 149.066Z"/>
<path id="path2_fill" d="M 328.328 75.6833C 345.265 75.6833 352.819 86.7253 355.336 96.6171L 379.14 87.8755C 374.563 69.9323 358.083 51.069 328.099 51.069C 296.055 51.069 271.106 75.9134 271.106 110.419C 271.106 144.465 296.055 170 328.786 170C 358.083 170 374.792 150.907 380.056 133.424L 356.71 124.912C 354.192 133.424 346.181 145.616 328.786 145.616C 312.077 145.616 297.657 132.963 297.657 110.419C 297.657 87.8755 312.077 75.6833 328.328 75.6833Z"/>
<path id="path3_fill" d="M 503.429 54.5196L 468.181 54.5196L 425.379 99.8376L 425.379 0L 399.057 0L 399.057 166.549L 425.379 166.549L 425.379 135.264L 439.112 120.771L 471.843 166.549L 504.344 166.549L 457.652 101.908L 503.429 54.5196Z"/>
<path id="path4_fill" d="M 627.93 41.6373C 624.268 23.4641 609.391 0 571.167 0C 540.954 0 516.005 22.544 516.005 49.9188C 516.005 74.3031 532.485 90.636 557.205 95.6969L 580.093 100.528C 594.055 103.518 601.837 112.03 601.837 122.612C 601.837 135.264 591.766 145.156 572.311 145.156C 548.965 145.156 536.834 129.513 535.232 112.49L 509.596 119.851C 512.114 143.315 531.112 170 572.311 170C 609.391 170 629.761 145.846 629.761 120.541C 629.761 97.5372 614.426 79.364 585.815 73.613L 562.469 68.7821C 549.88 66.0217 543.471 58.2003 543.471 47.8484C 543.471 35.4262 554.916 24.3843 571.396 24.3843C 593.14 24.3843 601.608 39.3369 603.211 49.4587L 627.93 41.6373Z"/>
<path id="path5_fill" d="M 725.139 170C 766.567 170 791.287 143.545 798.611 115.94L 773.434 107.659C 767.94 126.062 752.376 143.545 725.139 143.545C 697.444 143.545 671.351 123.302 671.351 85.115C 671.351 45.548 698.13 25.9946 724.91 25.9946C 752.147 25.9946 767.254 41.8674 772.06 61.6509L 797.924 52.9093C 790.6 24.3843 766.109 0 724.91 0C 682.795 0 643.198 31.9756 643.198 85.115C 643.198 138.254 681.422 170 725.139 170Z"/>
</defs>
</svg>
