<svg width="888" height="200" viewBox="0 0 888 200" version="1.1" xmlns="http://www.w3.org/2000/svg" xmlns:xlink="http://www.w3.org/1999/xlink" xmlns:figma="http://www.figma.com/figma/ns">
<title>HackSC</title>
<desc>Created using Figma</desc>
<g id="Canvas" transform="translate(-620 -240)" figma:type="canvas">
<g id="HackSC" style="mix-blend-mode:normal;" figma:type="vector">
<use xlink:href="#path0_fill" transform="translate(620.202 240)" fill="#FFFA00" style="mix-blend-mode:normal;"/>
<use xlink:href="#path1_fill" transform="translate(620.202 240)" fill="#FFFA00" style="mix-blend-mode:normal;"/>
<use xlink:href="#path2_fill" transform="translate(620.202 240)" fill="#FFFA00" style="mix-blend-mode:normal;"/>
<use xlink:href="#path3_fill" transform="translate(620.202 240)" fill="#FFFA00" style="mix-blend-mode:normal;"/>
<use xlink:href="#path4_fill" transform="translate(620.202 240)" fill="#FFFA00" style="mix-blend-mode:normal;"/>
<use xlink:href="#path5_fill" transform="translate(620.202 240)" fill="#FFFA00" style="mix-blend-mode:normal;"/>
</g>
</g>
<defs>
<path id="path0_fill" d="M 158.593 195.94L 158.593 4.05954L 120.974 4.05954L 120.974 81.1908L 37.3478 81.1908L 37.3478 4.05954L 0 4.05954L 0 195.94L 37.3478 195.94L 37.3478 116.373L 120.974 116.373L 120.974 195.94L 158.593 195.94Z"/>
<path id="path1_fill" d="M 171.473 159.675C 171.473 180.514 188.794 199.729 217.211 199.729C 236.967 199.729 249.687 190.528 256.453 179.973C 256.453 185.115 256.994 192.422 257.806 195.94L 290.824 195.94C 290.012 191.34 289.2 181.867 289.2 174.831L 289.2 109.337C 289.2 82.544 273.503 58.728 231.284 58.728C 195.56 58.728 176.345 81.7321 174.18 102.571L 206.115 109.337C 207.197 97.6996 215.858 87.6861 231.555 87.6861C 246.71 87.6861 254.017 95.5345 254.017 105.007C 254.017 109.608 251.582 113.396 244.004 114.479L 211.257 119.35C 189.065 122.598 171.473 135.859 171.473 159.675ZM 224.789 172.936C 213.151 172.936 207.468 165.359 207.468 157.51C 207.468 147.226 214.775 142.084 223.977 140.731L 254.017 136.13L 254.017 142.084C 254.017 165.629 239.944 172.936 224.789 172.936Z"/>
<path id="path2_fill" d="M 365.143 92.0162C 383.005 92.0162 391.395 103.383 394.642 114.479L 426.848 103.654C 421.165 81.1908 400.596 58.728 364.331 58.728C 325.63 58.728 295.319 88.2273 295.319 129.364C 295.319 170.23 326.171 200 365.414 200C 400.867 200 421.706 177.267 427.66 155.074L 395.996 144.52C 393.019 154.804 383.817 166.982 365.414 166.982C 347.01 166.982 331.314 153.451 331.314 129.364C 331.314 105.277 346.74 92.0162 365.143 92.0162Z"/>
<path id="path3_fill" d="M 563.602 62.7875L 516.511 62.7875L 470.503 112.314L 470.503 0L 434.508 0L 434.508 195.94L 470.503 195.94L 470.503 160.758L 485.388 145.061L 520.571 195.94L 564.684 195.94L 510.286 118.809L 563.602 62.7875Z"/>
<path id="path4_fill" d="M 697.863 49.797C 693.532 28.1461 675.67 0 629.121 0C 592.856 0 562.274 25.981 562.274 60.0812C 562.274 89.0392 582.03 108.796 612.612 115.02L 639.405 120.433C 654.29 123.41 662.68 132.07 662.68 143.166C 662.68 156.698 651.584 166.712 631.557 166.712C 604.493 166.712 591.232 149.662 589.608 130.717L 554.967 139.919C 557.944 167.253 580.406 200 631.286 200C 675.941 200 700.569 170.23 700.569 140.731C 700.569 113.667 681.895 90.9337 646.983 84.1678L 620.19 79.0257C 606.117 76.3194 599.351 67.9296 599.351 57.3748C 599.351 44.6549 611.259 33.0176 629.392 33.0176C 653.749 33.0176 662.409 49.5264 664.304 60.0812L 697.863 49.797Z"/>
<path id="path5_fill" d="M 798.827 200C 852.683 200 880.288 164.276 887.595 134.777L 852.683 124.222C 847.541 142.084 831.574 163.464 798.827 163.464C 767.974 163.464 739.287 141.001 739.287 100.135C 739.287 56.5629 769.598 35.9946 798.285 35.9946C 831.574 35.9946 846.459 56.2923 851.059 74.6955L 886.242 63.5995C 878.664 32.4763 851.33 0 798.285 0C 746.865 0 700.586 38.9716 700.586 100.135C 700.586 161.299 745.241 200 798.827 200Z"/>
</defs>
</svg>
